PathFileType  4	(X/Y/Z) C:\Users\antoi\Documents\MyRepositories\mobilecap\ResultsAnalysis
DataRate	CameraRate	NumFrames	NumMarkers	Units	OrigDataRate	OrigDataStartFrame	OrigNumFrames
100.0	100.0	4	51	mm	100.0	107	171
Frame#	Time	r_knee			r_shank_antsup			r_ankle			r_calc			r_5meta			r_toe			L_knee			L_shank_antsup			L_ankle			L_calc			L_5meta			L_toe			r_sh2			r_sh3			r_sh4			L_sh2			L_sh3			r_thigh1			r_thigh2			r_thigh3			r_thigh4			r_thigh5			L_thigh1			L_thigh2			L_thigh3			L_thigh4			r.ASIS			r.PSIS			L.ASIS			L.PSIS			C7			R_Shoulder			L_Shoulder			R_Sternum			L_Sternum			R_humerus			R_elbow_med			R_elbow_lat			R_forearm			R_wrist_radius			R_wrist_ulna			L_humerus			L_elbow_med			L_elbow_lat			L_forearm			L_wrist_radius			L_wrist_ulna			R_HJC			L_HJC			R_HJC_reg			L_HJC_reg			
		X1	Y1	Z1	X2	Y2	Z2	X3	Y3	Z3	X4	Y4	Z4	X5	Y5	Z5	X6	Y6	Z6	X7	Y7	Z7	X8	Y8	Z8	X9	Y9	Z9	X10	Y10	Z10	X11	Y11	Z11	X12	Y12	Z12	X13	Y13	Z13	X14	Y14	Z14	X15	Y15	Z15	X16	Y16	Z16	X17	Y17	Z17	X18	Y18	Z18	X19	Y19	Z19	X20	Y20	Z20	X21	Y21	Z21	X22	Y22	Z22	X23	Y23	Z23	X24	Y24	Z24	X25	Y25	Z25	X26	Y26	Z26	X27	Y27	Z27	X28	Y28	Z28	X29	Y29	Z29	X30	Y30	Z30	X31	Y31	Z31	X32	Y32	Z32	X33	Y33	Z33	X34	Y34	Z34	X35	Y35	Z35	X36	Y36	Z36	X37	Y37	Z37	X38	Y38	Z38	X39	Y39	Z39	X40	Y40	Z40	X41	Y41	Z41	X42	Y42	Z42	X43	Y43	Z43	X44	Y44	Z44	X45	Y45	Z45	X46	Y46	Z46	X47	Y47	Z47	X48	Y48	Z48	X49	Y49	Z49	X50	Y50	Z50	X51	Y51	Z51	

107	1.06000000	1019.56364	620.94369	-36.91295	959.74835	481.46178	-44.75406	674.90231	252.13302	-83.11250	627.18902	266.45433	-156.37511	733.32899	119.41721	-39.29798	789.66965	115.05508	-80.97218	931.22642	611.92576	-371.30158	971.44493	416.92761	-341.27673	890.51511	113.42626	-326.74217	831.82597	87.30328	-264.51464	1032.31691	31.24350	-354.71625	1072.46336	60.22600	-294.87667	884.37308	397.60191	-59.76908	903.69516	523.61039	-16.15168	825.03801	443.30853	-22.41296	906.01753	421.92386	-398.70392	895.95647	306.63526	-376.73619	1007.93047	907.70546	-18.57895	1042.59164	801.43602	-10.67078	986.50608	762.10298	-12.88657	905.39389	876.90674	-60.14527	940.00119	764.14899	-45.13490	1028.54997	900.54712	-385.23558	1011.16900	766.80728	-379.33907	921.33883	916.81505	-400.63116	906.45522	779.70705	-402.64268	1018.06175	1201.13741	-80.43949	848.08307	1223.87595	-191.57757	1052.38721	1164.91786	-356.32005	858.35149	1220.76212	-282.36152	993.53456	1661.36121	-412.37991	1053.96466	1678.59012	-224.53182	1049.93604	1539.57398	-546.11912	1108.86212	1568.27590	-336.18945	1111.02153	1547.19236	-388.13915	915.08782	1498.53950	-65.90909	777.22952	1438.92769	-73.43317	803.21536	1477.58777	-13.55013	815.34263	1283.16140	83.84990	812.28547	1192.53917	117.11593	785.94476	1209.96092	138.11234	1051.34023	1240.66226	-530.39994	962.35890	1173.71194	-470.41098	982.96267	1154.87128	-541.95346	1092.25064	978.88693	-528.09624	1133.27871	913.90203	-506.23086	1105.14328	903.62246	-525.40832	944.19348	1103.08031	-116.95172	959.46142	1084.05934	-312.91611	956.45610	1100.14804	-123.93513	977.23392	1093.84596	-307.68653	
108	1.07000000	1032.80910	622.50563	-37.72349	976.25333	481.67794	-44.88876	697.16747	244.76829	-81.17999	648.53095	256.76657	-154.28518	760.42657	114.58295	-36.54797	816.66697	111.87326	-78.50980	935.53795	612.63477	-370.87693	974.53539	417.40461	-340.89537	891.19147	114.56510	-326.53270	832.48129	88.42722	-264.12356	1032.38869	31.34151	-354.63999	1072.78663	60.02526	-294.78670	903.09174	395.93611	-59.20967	919.18895	522.39550	-16.13405	842.55195	440.12041	-21.80491	908.90328	422.83472	-398.25464	898.09520	307.62607	-376.33337	1018.81092	909.15792	-18.81343	1054.39194	803.14189	-11.28370	998.58117	763.43559	-13.05073	916.27903	877.58672	-59.44974	951.64122	765.10535	-44.69475	1035.22808	900.62717	-384.84967	1016.80733	767.04612	-378.84488	927.87416	917.69260	-400.53606	912.14413	780.68958	-402.17739	1026.34368	1201.94498	-80.40431	856.32315	1224.67305	-191.61204	1060.70868	1165.05997	-356.31538	866.78569	1221.43900	-282.39261	1002.51189	1661.72056	-413.30895	1063.16974	1679.16185	-225.39519	1058.58469	1539.40619	-546.66621	1117.73597	1568.44602	-336.90312	1119.84455	1547.32990	-388.75744	923.85641	1499.62207	-66.51606	785.82345	1440.32044	-74.06948	811.92779	1478.93831	-14.21666	823.40187	1284.52892	83.29318	819.99566	1193.90601	116.54395	793.72282	1211.45385	137.60329	1060.94013	1240.51818	-530.19842	972.27498	1173.30456	-469.92091	992.91245	1154.38578	-541.50614	1103.60846	979.28391	-527.19977	1145.18007	914.72257	-505.21275	1117.04284	904.16458	-524.32226	952.33230	1103.90767	-116.75943	967.61018	1084.47124	-312.68234	964.50068	1100.74666	-123.93748	985.67517	1094.19980	-307.71706	
109	1.08000000	1045.86241	623.96331	-38.75202	992.80980	481.76618	-45.28311	719.97041	237.05924	-79.25487	670.40724	246.72387	-152.15158	788.19946	109.57369	-34.13349	844.25963	108.64593	-76.47056	939.87827	613.28150	-370.42712	977.72635	417.87992	-340.52370	891.82108	115.70070	-326.30159	833.20655	89.50482	-263.67086	1032.45068	31.43802	-354.55671	1073.08767	59.82702	-294.69737	921.98242	394.12062	-58.89570	934.74761	520.93571	-16.22634	860.28796	436.61083	-21.25015	911.77021	423.72713	-397.77595	900.19620	308.61199	-375.89667	1029.63773	910.55966	-19.19992	1066.09066	804.79529	-12.12231	1010.54967	764.75800	-13.38501	927.11142	878.27234	-58.76679	963.14454	766.01710	-44.36313	1041.89147	900.65304	-384.26446	1022.46042	767.27899	-378.12493	934.41112	918.51105	-400.42149	917.86804	781.62532	-401.67148	1034.53247	1202.68816	-80.36982	864.50086	1225.43679	-191.64526	1068.96016	1165.13792	-356.32068	875.14228	1222.09497	-282.43292	1011.51185	1662.06055	-414.04307	1072.31940	1679.67961	-226.10076	1067.33912	1539.38167	-547.13258	1126.58357	1568.62047	-337.48991	1128.66320	1547.49908	-389.25335	932.64747	1500.56475	-67.00489	794.41551	1441.56627	-74.53698	820.69285	1480.11022	-14.71771	831.63160	1285.66674	82.79825	827.89140	1195.03413	115.95626	801.69170	1212.67169	137.12892	1070.46870	1240.50928	-529.90146	982.05933	1173.07936	-469.43730	1002.66084	1154.10822	-541.08005	1114.75784	979.80312	-526.29550	1156.83945	915.65448	-504.17486	1128.69383	904.82858	-523.22505	960.37112	1104.68408	-116.57776	975.66364	1084.83995	-312.45875	972.46940	1101.27230	-123.94069	994.00926	1094.50608	-307.76098	
110	1.09000000	1058.72756	625.33157	-39.98376	1009.40757	481.75628	-45.92535	743.31327	229.11543	-77.37222	692.84105	236.41162	-150.03568	816.60841	104.51715	-32.04741	872.40005	105.46973	-74.83353	944.22526	613.86910	-369.96522	980.97219	418.35561	-340.17538	892.43255	116.81302	-326.05383	833.98523	90.56025	-263.19245	1032.50529	31.52934	-354.47115	1073.35560	59.62076	-294.60680	941.00175	392.18812	-58.84424	950.35594	519.27350	-16.45136	878.23222	432.84140	-20.78421	914.62659	424.60241	-397.29594	902.27987	309.60452	-375.45794	1040.40806	911.91690	-19.72598	1077.70046	806.40223	-13.19445	1022.41713	766.06135	-13.88052	937.85856	878.96219	-58.10691	974.52616	766.91031	-44.16157	1048.52876	900.61614	-383.53205	1028.12489	767.50008	-377.25496	940.97223	919.25730	-400.26652	923.60246	782.51555	-401.15369	1042.61731	1203.36356	-80.32056	872.61508	1226.17841	-191.66535	1077.15635	1165.15088	-356.31258	883.43017	1222.72650	-282.47439	1020.53440	1662.37472	-414.59644	1081.41984	1680.13228	-226.65017	1076.18040	1539.47714	-547.51725	1135.41654	1568.79068	-337.95168	1137.47127	1547.68422	-389.63414	941.45666	1501.35423	-67.38770	803.02226	1442.65150	-74.85610	829.51030	1481.10356	-15.06892	840.01897	1286.57913	82.36587	835.94976	1195.92747	115.36100	809.84073	1213.61925	136.69732	1079.91761	1240.61922	-529.53741	991.71042	1173.01841	-468.97289	1012.23257	1154.01231	-540.67396	1125.69675	980.42458	-525.38502	1168.25405	916.67749	-503.11775	1140.10338	905.60022	-522.11373	968.30121	1105.41063	-116.39202	983.62769	1085.16589	-312.22942	980.34032	1101.75097	-123.92453	1002.23274	1094.76150	-307.79116	
